<svg viewBox="0 0 454 147" xmlns="http://www.w3.org/2000/svg" fill-rule="evenodd" clip-rule="evenodd" stroke-linejoin="round" stroke-miterlimit="1.414"><path fill="none" d="M0 0h453.511v146.252H0z"/><path fill="#eceff1" d="M26.802 3.646h139.081v139.081H26.803z"/><path d="M96.343 87.813l69.54 54.914V34.314l-69.54 53.5z" fill="#cfd8dc" fill-rule="nonzero"/><path d="M171.678 3.646h-5.795L96.343 58.56 26.803 3.646h-5.796c-9.597 0-17.385 7.789-17.385 17.385v104.311c0 9.597 7.788 17.385 17.385 17.385h5.795V34.314l69.54 53.488 69.541-53.5v108.425h5.795c9.597 0 17.385-7.788 17.385-17.385V21.032c0-9.597-7.788-17.386-17.385-17.386z" fill="#3b89da" fill-rule="nonzero"/><g fill="#495465" fill-rule="nonzero"><path d="M267.642 90.1l9.093 2.296c-1.906 7.47-5.335 13.164-10.29 17.086-4.952 3.922-11.006 5.883-18.163 5.883-7.406 0-13.43-1.508-18.07-4.523-4.641-3.016-8.172-7.383-10.594-13.102-2.422-5.719-3.633-11.859-3.633-18.422 0-7.156 1.368-13.398 4.102-18.726 2.734-5.329 6.625-9.375 11.672-12.14 5.047-2.767 10.6-4.15 16.664-4.15 6.875 0 12.656 1.75 17.344 5.25 4.687 3.5 7.953 8.422 9.797 14.766l-8.954 2.11c-1.593-5-3.906-8.64-6.937-10.922s-6.844-3.422-11.438-3.422c-5.281 0-9.695 1.265-13.242 3.797-3.547 2.531-6.04 5.93-7.476 10.195a41.033 41.033 0 0 0-2.157 13.195c0 5.844.852 10.946 2.555 15.305 1.703 4.36 4.352 7.617 7.945 9.773 3.594 2.157 7.485 3.235 11.672 3.235 5.094 0 9.407-1.469 12.938-4.407 3.53-2.937 5.922-7.296 7.172-13.078zM286.86 114.193v-49.78h7.547v6.983c1.563-2.437 3.64-4.398 6.235-5.883 2.593-1.484 5.547-2.226 8.859-2.226 3.688 0 6.71.765 9.07 2.297 2.36 1.531 4.024 3.672 4.993 6.422 3.937-5.813 9.062-8.719 15.375-8.719 4.937 0 8.734 1.367 11.39 4.101 2.656 2.735 3.985 6.946 3.985 12.633v34.172h-8.391V82.834c0-3.375-.273-5.805-.82-7.289-.547-1.485-1.54-2.68-2.977-3.586-1.437-.907-3.125-1.36-5.062-1.36-3.5 0-6.407 1.164-8.72 3.493-2.312 2.328-3.468 6.054-3.468 11.18v28.921h-8.437V81.85c0-3.75-.688-6.562-2.063-8.437-1.375-1.875-3.625-2.813-6.75-2.813-2.375 0-4.57.625-6.586 1.875-2.015 1.25-3.476 3.078-4.383 5.485-.906 2.406-1.36 5.875-1.36 10.406v25.828h-8.437zM399.314 108.052c-3.125 2.657-6.133 4.532-9.024 5.625-2.89 1.094-5.992 1.641-9.305 1.641-5.468 0-9.671-1.336-12.61-4.008-2.936-2.672-4.405-6.086-4.405-10.242 0-2.437.555-4.664 1.664-6.68 1.109-2.015 2.562-3.632 4.359-4.85 1.797-1.22 3.82-2.142 6.07-2.767 1.657-.437 4.157-.859 7.5-1.265 6.813-.813 11.829-1.782 15.047-2.907.032-1.156.047-1.89.047-2.203 0-3.437-.797-5.859-2.39-7.265-2.157-1.907-5.36-2.86-9.61-2.86-3.968 0-6.898.696-8.79 2.086-1.89 1.391-3.288 3.852-4.194 7.383l-8.25-1.125c.75-3.53 1.984-6.383 3.703-8.555 1.719-2.172 4.203-3.843 7.453-5.015 3.25-1.172 7.016-1.758 11.297-1.758 4.25 0 7.703.5 10.359 1.5 2.657 1 4.61 2.258 5.86 3.773 1.25 1.516 2.125 3.43 2.625 5.742.281 1.438.422 4.032.422 7.782v11.25c0 7.843.179 12.804.539 14.883a18.752 18.752 0 0 0 2.133 5.976h-8.813c-.875-1.75-1.437-3.797-1.687-6.14zm-.704-18.843c-3.062 1.25-7.656 2.312-13.781 3.187-3.47.5-5.922 1.063-7.36 1.688-1.437.625-2.546 1.54-3.327 2.742-.782 1.203-1.172 2.54-1.172 4.008 0 2.25.85 4.125 2.555 5.625 1.703 1.5 4.195 2.25 7.476 2.25 3.25 0 6.14-.71 8.672-2.133 2.531-1.422 4.391-3.367 5.578-5.836.906-1.906 1.359-4.719 1.359-8.438V89.21zM420.267 55.177v-9.703h8.437v9.703h-8.437zm0 59.016v-49.78h8.437v49.78h-8.437zM441.36 45.474h8.438v68.72h-8.438z"/></g></svg>